<svg viewBox="0 0 101 24" fill="#000" xmlns="http://www.w3.org/2000/svg" aria-hidden="true" focusable="false" class="h-5 sm:h-8"><path d="M95.165.259H53.5a4.624 4.624 0 0 0-4.624 4.624v14.234a4.624 4.624 0 0 0 4.624 4.624h41.666a4.624 4.624 0 0 0 4.624-4.624V4.883A4.624 4.624 0 0 0 95.166.26Z" fill="#5541F0"></path><path d="M54.785 6.369h2.847v1.806c.649-1.274 1.967-1.99 3.635-1.99 2.638 0 4.35 1.898 4.35 4.63v7.223H62.77v-6.623c0-1.597-.97-2.708-2.43-2.708-1.598 0-2.708 1.251-2.708 2.964v6.365h-2.847V6.369ZM85.16 14.148h2.591c.117 1.11.972 1.806 2.245 1.806 1.11 0 1.85-.555 1.85-1.25 0-2.593-6.389-.117-6.389-5.048 0-2.036 1.782-3.47 4.19-3.47 2.73 0 4.606 1.503 4.722 3.772h-2.591c-.162-1.087-1.157-1.642-2.062-1.642-1.018 0-1.69.463-1.69 1.25 0 2.523 6.482-.255 6.482 5.023 0 2.2-1.781 3.634-4.514 3.634-2.733 0-4.7-1.573-4.839-4.073l.004-.002ZM81.674 6.369a71.44 71.44 0 0 1-2.404 8.655h-.08c-.791-2.229-1.571-5.086-2.218-7.996-.049-.218-.096-.439-.143-.657h-2.555c-.047.22-.094.439-.143.657-.647 2.91-1.428 5.767-2.218 7.996h-.08a70.413 70.413 0 0 1-2.404-8.655H66.57c1.176 4.697 2.729 9.57 3.739 11.663h3.212c.572-1.376 1.29-3.619 2.033-6.2.742 2.581 1.46 4.824 2.032 6.2h3.21c1.01-2.092 2.563-6.967 3.739-11.663h-2.861Z" fill="#fff"></path><path d="M38.19 3.1c-.729-.651-1.15-1.637-1.229-2.841H32.57c.036.902.183 1.763.443 2.575.444 1.392 1.224 2.614 2.253 3.535 1.016.908 2.234 1.514 3.624 1.804a9.093 9.093 0 0 0 1.838.185h1.4v-4.39h-1.391c-1.027 0-1.902-.293-2.545-.869M29.808 4.918c-5.322 0-12.12 1.173-10.375 16.718h4.776c-.182-2.017-.314-3.674-.329-5.294 0-4.618 1.165-7.302 5.861-7.11l.963.037v-4.3a11.582 11.582 0 0 0-.893-.051M42.126 16.752c-.857.429-1.916.674-2.648.674-1.376 0-2.094-.437-2.374-2.102-.208-1.237-.283-3.77-.049-6.057h-4.563c-.22 2.722-.235 4.402.12 6.783.56 3.757 2.82 5.816 6.62 5.79 1.382-.009 2.572-.286 4.247-1.166l-1.353-3.922ZM9.828 17.84a131.43 131.43 0 0 0 1.869-5.255c.839-2.5 1.714-5.196 2.37-7.616h5.064a163.904 163.904 0 0 1-2.928 8.387c-1.071 2.827-2.108 5.586-3.345 8.28H6.622c-1.235-2.694-2.272-5.453-3.345-8.28A163.894 163.894 0 0 1 .348 4.97h5.066c.653 2.422 1.53 5.118 2.369 7.616.61 1.822 1.198 3.494 1.87 5.255h.175Z" fill="var(--palette-text-mode)"></path></svg>