<?xml version="1.0" encoding="utf-8"?>
<svg viewBox="0 0 40 40" fill="none" xmlns="http://www.w3.org/2000/svg" aria-hidden="true" focusable="false" height="56" class="sc-dBmzty cVgYjP"><path d="M29.578 31.008c0 1.46.5 2.687 1.516 3.687 1.008 1 2.258 1.5 3.75 1.5 1.468 0 2.695-.5 3.68-1.5.984-.976 1.476-2.203 1.476-3.687 0-1.477-.492-2.711-1.477-3.688-.984-.976-2.21-1.468-3.68-1.468-1.468 0-2.718.492-3.75 1.468-1.007 1-1.515 2.235-1.515 3.688Z" fill="#77FF07"></path><path d="M4.43 25.242 0 31.375c3.977 3.39 8.406 4.828 13.828 4.828 7.977 0 13.399-3.523 13.399-10.11 0-5.445-3.32-8.741-12.22-10.304-5.023-.883-6.077-1.601-6.077-3.226 0-1.141 1.312-2.086 4.633-2.086 2.726 0 5.32.914 7.851 2.671l4.234-5.906C22.266 4.5 18.156 3 13.461 3 6.008 3 .85 6.852.85 13.14c0 5.672 3.61 8.477 11.133 9.657 5.454.851 7.125 1.758 7.125 3.422 0 1.797-1.937 2.476-5.093 2.476-3.375.008-6.79-1.297-9.586-3.453Z" fill="#fff"></path></svg>